<svg width="442" height="278" viewBox="0 0 442 278" fill="none" xmlns="http://www.w3.org/2000/svg">
    <g clip-path="url(#clip0)">
        <path d="M247.563 79L382.126 136.273L247.563 193.545L113 136.273L247.563 79Z" stroke="white" stroke-width="2" />
        <path d="M247.563 110.546L382.126 167.819L247.563 225.091L113 167.819L247.563 110.546Z" stroke="white" stroke-width="2" />
        <path d="M247.563 142.092L382.126 199.365L247.563 256.637L113 199.365L247.563 142.092Z" stroke="white" stroke-width="2" />
        <path d="M247.563 173.638L382.126 230.91L247.563 288.183L113 230.91L247.563 173.638Z" stroke="white" stroke-width="2" />
        <path d="M247.563 205.184L382.126 262.456L247.563 319.729L113 262.456L247.563 205.184Z" stroke="white" stroke-width="2" />
        <path d="M247.563 236.729L382.126 294.002L247.563 351.275L113 294.002L247.563 236.729Z" stroke="white" stroke-width="2" />
        <path d="M247.563 268.275L382.126 325.548L247.563 382.821L113 325.548L247.563 268.275Z" stroke="white" stroke-width="2" />
    </g>
    <defs>
        <clipPath id="clip0">
            <rect width="442" height="278" fill="white" />
        </clipPath>
    </defs>
</svg>
