<svg width="442" height="278" viewBox="0 0 442 278" fill="none" xmlns="http://www.w3.org/2000/svg">
    <g clip-path="url(#clip0)">
        <path d="M200.453 410.086C232.904 416.84 274.221 350.185 292.739 261.208C311.256 172.231 299.961 94.6261 267.511 87.8727C235.06 81.1192 193.743 147.775 175.225 236.751C156.708 325.728 168.003 403.333 200.453 410.086Z" stroke="white" stroke-width="2" stroke-linecap="round" stroke-linejoin="round" />
        <path d="M184.377 215.209C235.542 140.087 299.212 94.3286 326.622 112.988C354.015 131.644 334.754 207.675 283.609 282.784C232.444 357.906 168.775 403.665 141.364 385.005C113.971 366.349 133.232 290.318 184.377 215.209Z" stroke="white" stroke-width="2" stroke-linecap="round" stroke-linejoin="round" />
        <path d="M201.091 198.79C277.103 148.966 353.457 131.045 371.634 158.776C389.81 186.506 342.916 249.371 266.907 299.178C190.894 349.002 114.541 366.923 96.3807 339.196C78.2042 311.466 125.099 248.601 201.111 198.777L201.091 198.79Z" stroke="white" stroke-width="2" stroke-linecap="round" stroke-linejoin="round" />
        <path d="M222.791 190.021C312.088 173.075 389.474 185.742 395.649 218.32C401.827 250.882 334.446 291.023 245.166 307.973C155.869 324.92 78.4829 312.253 72.308 279.675C66.1297 247.113 133.51 206.972 222.791 190.021Z" stroke="white" stroke-width="2" stroke-linecap="round" stroke-linejoin="round" />
        <path d="M221.775 307.756C310.752 326.274 388.357 314.979 395.111 282.528C401.864 250.078 335.209 208.76 246.232 190.243C157.255 171.725 79.6504 183.02 72.8969 215.471C66.1435 247.921 132.799 289.239 221.775 307.756Z" stroke="white" stroke-width="2" stroke-linecap="round" stroke-linejoin="round" />
        <path d="M370.007 341.637C388.665 314.241 342.895 250.56 267.778 199.403C192.66 148.245 116.64 128.982 97.9825 156.378C79.3249 183.774 125.095 247.454 200.212 298.612C275.33 349.77 351.35 369.033 370.007 341.637Z" stroke="white" stroke-width="2" stroke-linecap="round" stroke-linejoin="round" />
        <path d="M284.196 216.084C334.02 292.097 351.941 368.451 324.211 386.627C296.48 404.804 233.616 357.909 183.792 281.897C133.968 205.884 116.063 129.534 143.774 111.371C171.504 93.1942 234.369 140.089 284.193 216.101L284.196 216.084Z" stroke="white" stroke-width="2" stroke-linecap="round" stroke-linejoin="round" />
        <path d="M292.959 237.79C309.905 327.087 297.239 404.473 264.66 410.648C232.098 416.826 191.957 349.445 175.007 260.165C158.06 170.868 170.727 93.4817 203.306 87.3068C235.867 81.1285 276.009 148.509 292.959 237.79Z" stroke="white" stroke-width="2" stroke-linecap="round" stroke-linejoin="round" />
        <path d="M292.752 261.21C274.233 350.194 232.907 416.84 200.466 410.088C168.025 403.337 156.719 325.738 175.238 236.753C193.757 147.769 235.083 81.1232 267.524 87.8746C299.965 94.6261 311.267 172.242 292.752 261.21Z" stroke="white" stroke-width="2" stroke-linecap="round" stroke-linejoin="round" />
        <path d="M283.574 282.761C334.732 207.643 353.995 131.624 326.599 112.966C299.203 94.3083 235.522 140.078 184.365 215.196C133.207 290.313 113.944 366.333 141.34 384.991C168.736 403.648 232.416 357.879 283.574 282.761Z" stroke="white" stroke-width="2" stroke-linecap="round" stroke-linejoin="round" />
        <path d="M266.903 299.196C190.891 349.02 114.537 366.941 96.377 339.214C78.2005 311.483 125.095 248.618 201.104 198.811C277.113 149.004 353.47 131.066 371.647 158.797C389.823 186.527 342.929 249.392 266.916 299.216L266.903 299.196Z" stroke="white" stroke-width="2" stroke-linecap="round" stroke-linejoin="round" />
        <path d="M245.196 307.963C155.899 324.909 78.5128 312.242 72.3379 279.664C66.163 247.086 133.54 206.961 222.821 190.011C312.118 173.064 389.504 185.731 395.679 218.309C401.857 250.871 334.476 291.013 245.196 307.963Z" stroke="white" stroke-width="2" stroke-linecap="round" stroke-linejoin="round" />
        <path d="M221.775 307.756C132.791 289.237 66.1455 247.912 72.8969 215.471C79.6484 183.03 157.264 171.727 246.232 190.243C335.199 208.758 401.862 250.087 395.111 282.528C388.359 314.969 310.743 326.272 221.775 307.756Z" stroke="white" stroke-width="2" stroke-linecap="round" stroke-linejoin="round" />
        <path d="M200.213 298.598C125.09 247.433 79.3153 183.76 97.9914 156.353C116.647 128.96 192.678 148.221 267.787 199.366C342.909 250.531 388.685 314.204 370.009 341.611C351.353 369.004 275.322 349.743 200.213 298.598Z" stroke="white" stroke-width="2" stroke-linecap="round" stroke-linejoin="round" />
        <path d="M183.785 281.896C133.961 205.884 116.04 129.53 143.767 111.37C171.497 93.1936 234.362 140.088 284.17 216.097C333.993 292.109 351.914 368.463 324.187 386.623C296.461 404.783 233.592 357.905 183.768 281.893L183.785 281.896Z" stroke="white" stroke-width="2" stroke-linecap="round" stroke-linejoin="round" />
        <path d="M175.019 260.172C158.072 170.875 170.739 93.4886 203.318 87.3137C235.879 81.1353 276.021 148.516 292.971 237.797C309.917 327.094 297.251 404.48 264.672 410.655C232.11 416.833 191.969 349.452 175.019 260.172Z" stroke="white" stroke-width="2" stroke-linecap="round" stroke-linejoin="round" />
    </g>
    <defs>
        <clipPath id="clip0">
            <rect width="442" height="278" fill="white" />
        </clipPath>
    </defs>
</svg>
