<svg width="442" height="278" viewBox="0 0 442 278" fill="none" xmlns="http://www.w3.org/2000/svg">
    <g clip-path="url(#clip0)">
        <path d="M246.999 224.414C279.38 256.794 331.878 256.794 364.258 224.414C396.638 192.034 396.638 139.536 364.258 107.156C331.878 74.7755 279.38 74.7756 247 107.156C214.62 139.536 214.619 192.034 246.999 224.414Z" stroke="white" stroke-width="2" stroke-linecap="round" stroke-linejoin="round" />
        <path d="M210.026 261.388C242.406 293.768 294.904 293.768 327.284 261.388C359.664 229.008 359.664 176.509 327.284 144.129C294.904 111.749 242.406 111.749 210.026 144.129C177.646 176.509 177.646 229.008 210.026 261.388Z" stroke="white" stroke-width="2" stroke-linecap="round" stroke-linejoin="round" />
        <path d="M173.052 298.362C205.432 330.742 257.93 330.742 290.31 298.362C322.69 265.982 322.69 213.484 290.31 181.104C257.93 148.724 205.432 148.724 173.052 181.104C140.672 213.484 140.672 265.982 173.052 298.362Z" stroke="white" stroke-width="2" stroke-linecap="round" stroke-linejoin="round" />
        <path d="M136.078 335.336C168.458 367.716 220.956 367.716 253.336 335.336C285.717 302.956 285.716 250.457 253.336 218.077C220.956 185.697 168.458 185.697 136.078 218.077C103.698 250.457 103.698 302.956 136.078 335.336Z" stroke="white" stroke-width="2" stroke-linecap="round" stroke-linejoin="round" />
        <path d="M99.1041 372.309C131.484 404.69 183.983 404.69 216.363 372.31C248.743 339.93 248.743 287.431 216.363 255.051C183.983 222.671 131.484 222.671 99.1042 255.051C66.7242 287.431 66.7241 339.929 99.1041 372.309Z" stroke="white" stroke-width="2" stroke-linecap="round" stroke-linejoin="round" />
    </g>
    <defs>
        <clipPath id="clip0">
            <rect width="442" height="278" fill="white" />
        </clipPath>
    </defs>
</svg>
