<svg width="42" height="42" viewBox="0 0 42 42" fill="none" xmlns="http://www.w3.org/2000/svg">
<path d="M32.578 11.6138C31.6956 11.6138 30.8464 11.7371 30.0352 11.9648C30.2629 11.1583 30.3862 10.3044 30.3862 9.42199C30.3862 8.77204 30.2392 8.06043 29.983 7.3156C27.0938 -1.1052 14.9015 -1.1052 12.017 7.3156C11.7609 8.06517 11.6138 8.77679 11.6138 9.42199C11.6138 10.3044 11.7371 11.1536 11.9649 11.9648C11.1584 11.7371 10.3044 11.6138 9.42199 11.6138C8.77205 11.6138 8.06043 11.7608 7.3156 12.017C-1.1052 14.9062 -1.1052 27.0986 7.3156 29.983C8.06517 30.2392 8.77679 30.3862 9.42199 30.3862C10.3044 30.3862 11.1536 30.2629 11.9649 30.0352C11.7371 30.8417 11.6138 31.6956 11.6138 32.578C11.6138 33.228 11.7609 33.9396 12.017 34.6844C14.9062 43.1052 27.0986 43.1052 29.983 34.6844C30.2392 33.9348 30.3862 33.2232 30.3862 32.578C30.3862 31.6956 30.2629 30.8464 30.0352 30.0352C30.8417 30.2629 31.6956 30.3862 32.578 30.3862C33.228 30.3862 33.9396 30.2392 34.6844 29.983C43.1052 27.0938 43.1052 14.9014 34.6844 12.017C33.9348 11.7608 33.2232 11.6138 32.578 11.6138ZM28.1755 21.7519C29.9498 23.5262 29.8976 29.8976 29.8976 29.8976C29.8976 29.8976 23.5263 29.9545 21.752 28.1755C21.4483 27.8718 21.2016 27.5398 21.0024 27.184C20.8031 27.5398 20.5564 27.8718 20.2528 28.1755C18.4785 29.9498 12.1072 29.8976 12.1072 29.8976C12.1072 29.8976 12.0502 23.5262 13.8293 21.7519C14.1329 21.4483 14.465 21.2016 14.8208 21.0024C14.465 20.8031 14.1329 20.5564 13.8293 20.2528C12.055 18.4785 12.1072 12.1072 12.1072 12.1072C12.1072 12.1072 18.4785 12.0502 20.2528 13.8293C20.5564 14.1329 20.8031 14.465 21.0024 14.8208C21.2016 14.465 21.4483 14.1329 21.752 13.8293C23.5263 12.055 29.8976 12.1072 29.8976 12.1072C29.8976 12.1072 29.9545 18.4785 28.1755 20.2528C27.8719 20.5564 27.5398 20.8031 27.184 21.0024C27.5398 21.2016 27.8719 21.4483 28.1755 21.7519Z" fill="white"/>
</svg>
