<svg width="42" height="42" viewBox="0 0 42 42" fill="none" xmlns="http://www.w3.org/2000/svg">
<path d="M26.319 21.0019C25.6329 20.602 24.972 20.1347 24.3449 19.617C24.4206 18.8046 24.5595 18.0091 24.7616 17.243C23.9913 17.445 23.1958 17.5839 22.3876 17.6597C21.8656 17.0325 21.4026 16.3717 21.0027 15.6855C20.6028 16.3717 20.1356 17.0325 19.6179 17.6597C18.8055 17.5839 18.0099 17.445 17.2438 17.243C17.4459 18.0133 17.5848 18.8046 17.6605 19.617C17.0334 20.1389 16.3725 20.602 15.6864 21.0019C16.3725 21.4017 17.0334 21.869 17.6605 22.3867C17.5848 23.1991 17.4459 23.9946 17.2438 24.7649C18.0141 24.5629 18.8055 24.424 19.6179 24.3482C20.1398 24.9754 20.6028 25.6363 21.0027 26.3224C21.4026 25.6363 21.8656 24.9754 22.3876 24.3482C23.2 24.424 23.9955 24.5629 24.7658 24.7649C24.5637 23.9946 24.4248 23.2033 24.3491 22.3909C24.9763 21.869 25.6371 21.4059 26.3232 21.0061L26.319 21.0019Z" fill="white"/>
<path d="M20.9974 41.0003C23.624 36.4753 23.624 30.8433 20.9974 26.3184C18.3708 30.8433 18.3708 36.4753 20.9974 41.0003Z" fill="white"/>
<path d="M1 21.0012C5.52496 23.6278 11.157 23.6278 15.6819 21.0012C11.157 18.3746 5.52496 18.3746 1 21.0012Z" fill="white"/>
<path d="M20.9974 1C18.3708 5.52496 18.3708 11.157 20.9974 15.6819C23.624 11.157 23.624 5.52496 20.9974 1Z" fill="white"/>
<path d="M41 21.0012C36.4751 18.3746 30.8431 18.3746 26.3181 21.0012C30.8431 23.6278 36.4751 23.6278 41 21.0012Z" fill="white"/>
<path d="M6.86011 35.1398C11.9196 33.7971 15.9016 29.8151 17.2401 24.7598C12.1806 26.1025 8.19865 30.0845 6.86011 35.1398Z" fill="white"/>
<path d="M6.86011 6.85938C8.20286 11.9189 12.1848 15.9009 17.2401 17.2394C15.8974 12.1799 11.9154 8.19792 6.86011 6.85938Z" fill="white"/>
<path d="M35.1411 6.85938C30.0815 8.20213 26.0995 12.1841 24.761 17.2394C29.8205 15.8967 33.7983 11.9147 35.1411 6.85938Z" fill="white"/>
<path d="M24.761 24.7598C26.1037 29.8193 30.0857 33.8013 35.1411 35.1398C33.7983 30.0803 29.8163 26.0983 24.761 24.7598Z" fill="white"/>
</svg>
