<svg width="42" height="42" viewBox="0 0 42 42" fill="none" xmlns="http://www.w3.org/2000/svg">
<path d="M41 14.9182C41 9.44131 36.4864 5 30.9205 5C25.9626 5 21.8466 8.52083 21 13.1554C20.1534 8.51622 16.0374 5 11.0795 5C5.51357 5 1 9.44131 1 14.9182M26.2151 14.9182L30.9205 10.2881L35.6258 14.9182M6.37418 14.9182L11.0795 10.2881L15.7848 14.9182" fill="white"/>
<path d="M41 25.9592C41 20.4823 36.4864 16.041 30.9205 16.041C25.9626 16.041 21.8466 19.5618 21 24.1965C20.1534 19.5572 16.0374 16.041 11.0795 16.041C5.51357 16.041 1 20.4823 1 25.9592M26.2151 25.9592L30.9205 21.3292L35.6258 25.9592M6.37418 25.9592L11.0795 21.3292L15.7848 25.9592" fill="white"/>
<path d="M41 37.0002C41 31.5233 36.4864 27.082 30.9205 27.082C25.9626 27.082 21.8466 30.6029 21 35.2375C20.1534 30.5983 16.0374 27.082 11.0795 27.082C5.51357 27.082 1 31.5233 1 37.0002M26.2151 37.0002L30.9205 32.3702L35.6258 37.0002M6.37418 37.0002L11.0795 32.3702L15.7848 37.0002" fill="white"/>
</svg>
