<svg width="42" height="42" viewBox="0 0 42 42" fill="none" xmlns="http://www.w3.org/2000/svg">
<path d="M2 12.9803C8.3307 12.9803 8.33072 14.8438 14.6667 14.8438C21.0026 14.8438 20.9974 12.9803 27.3333 12.9803C33.6693 12.9803 33.6641 14.8438 40 14.8438V6.70715C33.6693 6.70715 33.6693 4.84375 27.3333 4.84375C20.9974 4.84375 21.0026 6.70715 14.6667 6.70715C8.33072 6.70715 8.33595 4.84375 2 4.84375V12.9803Z" fill="white"/>
<path d="M2 24.1667C8.3307 24.1667 8.33072 25.8438 14.6667 25.8438C21.0026 25.8438 20.9974 24.1667 27.3333 24.1667C33.6693 24.1667 33.6641 25.8438 40 25.8438V18.5208C33.6693 18.5208 33.6693 16.8438 27.3333 16.8438C20.9974 16.8438 21.0026 18.5208 14.6667 18.5208C8.33072 18.5208 8.33595 16.8438 2 16.8438V24.1667Z" fill="white"/>
<path d="M2 35.9803C8.3307 35.9803 8.33072 37.8438 14.6667 37.8438C21.0026 37.8438 20.9974 35.9803 27.3333 35.9803C33.6693 35.9803 33.6641 37.8438 40 37.8438V29.7071C33.6693 29.7071 33.6693 27.8438 27.3333 27.8438C20.9974 27.8438 21.0026 29.7071 14.6667 29.7071C8.33072 29.7071 8.33595 27.8438 2 27.8438V35.9803Z" fill="white"/>
</svg>
