<svg width="126" height="148" viewBox="0 0 126 148" fill="none" xmlns="http://www.w3.org/2000/svg">
<path d="M124.2 85.5771C124.2 119.505 96.6256 147 62.6001 147C28.5746 147 1 119.505 1 85.5771H124.169H124.2Z" stroke="white" stroke-width="2" stroke-linejoin="round"/>
<path d="M18.7383 128.647C29.9009 117.359 45.4273 110.327 62.6298 110.327C79.8323 110.327 95.0427 117.201 106.174 128.332" stroke="white" stroke-width="2" stroke-linejoin="round"/>
<path d="M62.627 146.999V85.5758V28.4092" stroke="white" stroke-width="2" stroke-linejoin="round"/>
<path d="M86.029 85.5771C86.029 119.505 62.6285 147 62.6285 147C62.6285 147 33.125 119.505 33.125 85.5771" stroke="white" stroke-width="2" stroke-linejoin="round"/>
<path d="M61.7657 30.2387C61.7657 30.2387 61.5152 0 100.509 0C100.509 0 102.575 30.2387 61.7657 30.2387Z" fill="white"/>
<path d="M63.8798 30.2351C63.8798 30.2351 63.8798 -0.349996 24.4257 0.00303278C24.4257 0.00303278 22.6223 30.6202 63.8798 30.2351Z" fill="white"/>
</svg>
