<svg width="90" height="112" viewBox="0 0 90 112" fill="none" xmlns="http://www.w3.org/2000/svg">
<path d="M34.9603 0C18.9903 0 4.5503 11.59 0.9403 27.1C0.3203 29.73 0.0203 32.38 0.0003 35.01C-0.0097 37.5 0.2303 39.97 0.7203 42.38C2.9503 53.36 10.2203 63.1 20.9703 67.78C21.0403 67.81 21.1103 67.84 21.1803 67.87C25.3903 69.68 30.0403 70.67 34.9103 70.67H54.8103C58.4803 70.67 61.4503 73.65 61.4503 77.32C61.4503 80.99 58.4703 83.96 54.8103 83.96H0.0003V111.41H54.8203C71.8303 111.41 86.0103 99.24 89.1103 83.13C92.1603 67.25 83.4503 50.75 68.5503 44.37C64.3403 42.57 59.6903 41.57 54.8203 41.57H34.9203C31.2503 41.57 28.2803 38.59 28.2803 34.92C28.2803 31.25 31.2603 28.28 34.9203 28.28H89.7403V0H34.9603Z" fill="white"/>
<path d="M0.0402832 2.46L4.30028 0H2.30028L0.0402832 1.3V2.46Z" fill="#322823"/>
<path d="M0.0402832 8L13.8903 0H11.8903L0.0402832 6.84V8Z" fill="#322823"/>
<path d="M0.0402832 13.54L23.4903 0H21.4903L0.0402832 12.38V13.54Z" fill="#322823"/>
<path d="M0.0402832 19.08L33.0803 0H31.0803L0.0402832 17.92V19.08Z" fill="#322823"/>
<path d="M30.7303 29.06L81.0603 0H79.0603L30.0803 28.28H30.7303V29.06Z" fill="#322823"/>
<path d="M89.7002 6.08999V4.92999L30.7302 38.98V40.13L89.7002 6.08999Z" fill="#322823"/>
<path d="M89.7002 0.55V0H88.6502L30.7302 33.44V34.59L89.7002 0.55Z" fill="#322823"/>
<path d="M59.0102 29.35V28.28H60.8602L89.7002 11.63V10.47L30.7302 44.52V45.67L59.0102 29.35Z" fill="#322823"/>
<path d="M59.0102 34.89V33.73L30.7302 50.06V51.21L59.0102 34.89Z" fill="#322823"/>
<path d="M61.8704 0H59.8704L10.8904 28.28H12.8904L61.8704 0Z" fill="#322823"/>
<path d="M70.4602 28.28L89.7002 17.17V16.01L68.4602 28.28H70.4602Z" fill="#322823"/>
<path d="M80.0503 28.28L89.7003 22.71V21.55L78.0503 28.28H80.0503Z" fill="#322823"/>
<path d="M89.6504 28.28L89.7004 28.25V27.09L87.6504 28.28H89.6504Z" fill="#322823"/>
<path d="M52.2703 0H50.2703L1.30029 28.28H3.30029L52.2703 0Z" fill="#322823"/>
<path d="M0.0402832 24.62L42.6803 0H40.6803L0.0402832 23.46V24.62Z" fill="#322823"/>
<path d="M59.0102 40.43V39.27L30.7302 55.6V56.75L59.0102 40.43Z" fill="#322823"/>
<path d="M71.4602 0H69.4602L20.4902 28.28H22.4902L71.4602 0Z" fill="#322823"/>
<path d="M32.0102 111.41L59.0102 95.82V94.67L30.7302 110.99V111.41H32.0102Z" fill="#322823"/>
<path d="M59.0102 90.28V89.13L30.7302 105.45V106.61L59.0102 90.28Z" fill="#322823"/>
<path d="M59.0103 101.36V100.21L39.6003 111.41H41.6003L59.0103 101.36Z" fill="#322823"/>
<path d="M59.0103 106.94V105.79L49.2603 111.41H51.2603L59.0103 106.94Z" fill="#322823"/>
<path d="M59.0103 111.33L58.8604 111.41H59.0103V111.33Z" fill="#322823"/>
<path d="M59.0102 84.74V83.59L30.7302 99.91V101.07L59.0102 84.74Z" fill="#322823"/>
<path d="M59.0102 51.51V50.35L30.7302 66.68V67.83L59.0102 51.51Z" fill="#322823"/>
<path d="M59.0102 79.2V78.05L30.7302 94.38V95.53L59.0102 79.2Z" fill="#322823"/>
<path d="M59.0102 62.59V61.43L30.7302 77.76V78.91L59.0102 62.59Z" fill="#322823"/>
<path d="M59.0102 45.97V44.81L30.7302 61.14V62.29L59.0102 45.97Z" fill="#322823"/>
<path d="M59.0102 57.05V55.89L30.7302 72.22V73.37L59.0102 57.05Z" fill="#322823"/>
<path d="M59.0102 73.67V72.51L30.7302 88.84V89.99L59.0102 73.67Z" fill="#322823"/>
<path d="M59.0102 68.13V66.97L30.7302 83.3V84.45L59.0102 68.13Z" fill="#322823"/>
<path d="M28.2803 34.92C28.2803 38.59 31.2603 41.57 34.9203 41.57H54.8203C59.7003 41.57 64.3403 42.57 68.5503 44.37C83.4403 50.75 92.1603 67.26 89.1103 83.13C86.0103 99.24 71.8403 111.41 54.8203 111.41H89.7403V28.28H34.9203C31.2503 28.28 28.2803 31.26 28.2803 34.92Z" fill="#322823"/>
<path d="M0.000244141 35.01C0.0102441 32.38 0.320244 29.73 0.930244 27.1C4.55024 11.59 18.9902 0 34.9602 0H0.000244141V35.01Z" fill="#87B145"/>
<path d="M0.0003 35.0099C-0.0097 37.4999 0.2303 39.9699 0.7203 42.3799C2.9503 53.3599 10.2203 63.0999 20.9703 67.7799C21.0403 67.8099 21.1103 67.8399 21.1803 67.8699C25.3903 69.6799 30.0403 70.6699 34.9103 70.6699H54.8103C58.4803 70.6699 61.4503 73.6499 61.4503 77.3199C61.4503 80.9899 58.4703 83.9599 54.8103 83.9599H0.0003V34.9999V35.0099Z" fill="#322823"/>
</svg>
